PathFileType	4	(X/Y/Z)	./resultDataOpenSim/trcMotMarkerGrf/sub10/qtm-01-01.trc
DataRate	CameraRate	NumFrames	NumMarkers	Units	OrigDataRate	OrigDataStartFrame	OrigNumFrames
250.000000	250.000000	5	24	m	250.000000	240	479
Frame#	Time	L.Toe.Tip			R.Toe.Tip			L.Ankle.Lat			R.Ankle.Lat			L.Ankle.Med			R.Ankle.Med			L.Heel			R.Heel			L.Knee.Lat			R.Knee.Lat			L.Knee.Med			R.Knee.Med			L.Thigh.Upper			R.Thigh.Upper			L.ASIS			R.ASIS			V.Sacral			L.Acromium			R.Acromium			C7			L.Elbow			R.Elbow			L.Wrist.Lat			R.Wrist.Lat
		X1	Y1	Z1	X2	Y2	Z2	X3	Y3	Z3	X4	Y4	Z4	X5	Y5	Z5	X6	Y6	Z6	X7	Y7	Z7	X8	Y8	Z8	X9	Y9	Z9	X10	Y10	Z10	X11	Y11	Z11	X12	Y12	Z12	X13	Y13	Z13	X14	Y14	Z14	X15	Y15	Z15	X16	Y16	Z16	X17	Y17	Z17	X18	Y18	Z18	X19	Y19	Z19	X20	Y20	Z20	X21	Y21	Z21	X22	Y22	Z22	X23	Y23	Z23	X24	Y24	Z24

240	0.956	-0.0041182816	0.042108901	-0.14481448	0.062422779	0.068793438	0.0035327433	-0.14195662	0.066871345	-0.16494404	-0.068968922	0.12504197	0.0074351003	-0.12832609	0.09026733	-0.082016768	-0.022460245	0.14114297	-0.068109014	-0.203211	0.03774639	-0.11686401	-0.11114897	0.11008278	-0.051647881	-0.085006175	0.44948404	-0.20816173	0.08813392	0.48284029	0.053744875	-0.08083441	0.42993725	-0.085168206	0.13292355	0.49384724	-0.069303194	-0.048944637	0.84238053	-0.27268083	-0.051804561	0.86617583	0.10531376	0.015612904	0.95146137	-0.21068478	0.019491927	0.96007023	0.034847321	-0.1706231	0.97266257	-0.088305561	-0.012159116	1.4283246	-0.23877528	-0.04869163	1.4218236	0.085644488	-0.11632845	1.4592266	-0.09243633	-0.10066292	1.0916716	-0.28935292	-0.1567112	1.0858158	0.10553398	0.075105753	0.90418933	-0.30700709	-0.039363574	0.8761754	0.15741178
241	0.96	-0.0040767209	0.042039642	-0.14479819	0.08099412	0.068511904	0.0036407291	-0.14189996	0.066914941	-0.16472511	-0.052048898	0.12080979	0.0072677672	-0.12903331	0.090270231	-0.08161914	-0.005963684	0.13807362	-0.068168498	-0.20342125	0.038128956	-0.1166292	-0.093169119	0.10448583	-0.052162549	-0.083470695	0.44925952	-0.20802125	0.095689353	0.48346298	0.053399956	-0.07903618	0.42956391	-0.08526889	0.13969171	0.49508836	-0.069532396	-0.045001877	0.84183603	-0.27259027	-0.046284024	0.86652267	0.10516004	0.019983429	0.9509059	-0.21118264	0.024991728	0.96025991	0.034308077	-0.16844796	0.97315379	-0.085903484	-0.0069520591	1.4282303	-0.23881321	-0.043524311	1.4214855	0.085599174	-0.11099429	1.4590096	-0.092652431	-0.09452962	1.091288	-0.28917344	-0.15280273	1.0860819	0.10550822	0.083572416	0.90514139	-0.30694064	-0.037368739	0.87561755	0.15843502
242	0.964	-0.0040191518	0.041986623	-0.14480439	0.099544326	0.068352799	0.0038393121	-0.14185903	0.066975905	-0.16446894	-0.035015895	0.1166488	0.0070954947	-0.12911344	0.090390037	-0.081353743	0.010663299	0.13518526	-0.068217198	-0.20363383	0.038508165	-0.11646202	-0.075338273	0.099062451	-0.052517573	-0.081911277	0.44905231	-0.20790694	0.1031504	0.48397652	0.053097309	-0.077192173	0.42915162	-0.085353257	0.14635208	0.49615637	-0.069771807	-0.041032868	0.84130404	-0.27245849	-0.040462546	0.8668781	0.10513626	0.02435222	0.9502995	-0.21165967	0.030487565	0.96036058	0.033826692	-0.16957579	0.97429583	-0.081431345	-0.001754621	1.4280948	-0.23885103	-0.038367236	1.4211048	0.085553831	-0.10572637	1.4587208	-0.092679342	-0.088346405	1.0908561	-0.28903419	-0.14891514	1.0863062	0.10551501	0.092037308	0.90608197	-0.30686413	-0.035091212	0.87508498	0.15954336
243	0.968	-0.0039478137	0.041950943	-0.14483827	0.11806341	0.068325626	0.0041362506	-0.14188306	0.067061315	-0.16412449	-0.017922476	0.11256205	0.0069442027	-0.12890215	0.090515479	-0.081173947	0.027476393	0.1324587	-0.068176294	-0.2038028	0.03883829	-0.11637531	-0.057546513	0.093793696	-0.052745446	-0.080353406	0.44889638	-0.20782727	0.11047878	0.48436945	0.05280849	-0.075431846	0.42871636	-0.085336156	0.15291298	0.49703929	-0.070023866	-0.037081403	0.84078359	-0.27231927	-0.034159129	0.86727115	0.10532756	0.028734598	0.94965181	-0.21211623	0.035973366	0.96036949	0.033399869	-0.17145197	0.97557721	-0.076432821	0.0034390788	1.4279118	-0.23888238	-0.033218998	1.4206842	0.085513536	-0.10051911	1.4583927	-0.092551207	-0.082107345	1.0903751	-0.28894164	-0.14508944	1.0864921	0.10557662	0.10049673	0.90700967	-0.30677261	-0.03257233	0.87457031	0.16073057
244	0.972	-0.0038794828	0.041929737	-0.1448766	0.13655354	0.068444175	0.0045314395	-0.14199388	0.067162041	-0.16367663	-0.00078746137	0.1085875	0.0068017806	-0.12862272	0.09058872	-0.08099638	0.044508491	0.12984811	-0.067996953	-0.20389549	0.039095755	-0.11630894	-0.039653625	0.088655857	-0.052903784	-0.078860772	0.44877955	-0.20773074	0.11765145	0.48463728	0.052515609	-0.073733473	0.42826715	-0.085231845	0.15938612	0.49773291	-0.070281122	-0.033144554	0.8402703	-0.27217345	-0.027455517	0.86766807	0.10570857	0.033124455	0.94897262	-0.21255863	0.041452099	0.96029084	0.03301935	-0.17128009	0.9764313	-0.072599075	0.0086295862	1.4276767	-0.23890718	-0.028069518	1.4202198	0.085477581	-0.095330086	1.4580447	-0.092389144	-0.075803325	1.0898435	-0.28890458	-0.14135694	1.08664	0.10570181	0.10894302	0.90792331	-0.3066716	-0.030038704	0.87403898	0.1619105
